<?xml version="1.0" standalone="no"?>
<!DOCTYPE svg PUBLIC "-//W3C//DTD SVG 20010904//EN"
 "http://www.w3.org/TR/2001/REC-SVG-20010904/DTD/svg10.dtd">
<svg version="1.0" xmlns="http://www.w3.org/2000/svg"
 width="1204.000000pt" height="1204.000000pt" viewBox="0 0 1204.000000 1204.000000"
 preserveAspectRatio="xMidYMid meet">
<metadata>
Created by potrace 1.14, written by Peter Selinger 2001-2017
</metadata>
<g transform="translate(0.000000,1204.000000) scale(0.100000,-0.100000)"
fill="#000000" stroke="none">
<path d="M1919 12016 c-2 -2 -80 -6 -174 -10 -93 -3 -188 -9 -210 -11 -167
-21 -212 -29 -303 -51 -637 -156 -1108 -702 -1177 -1364 -4 -30 -8 -68 -11
-85 -2 -16 -7 -106 -11 -200 -10 -224 -10 -8318 0 -8545 8 -191 27 -364 51
-479 67 -310 266 -640 517 -854 174 -149 451 -286 674 -332 44 -9 87 -18 95
-20 8 -1 47 -6 85 -10 39 -4 81 -9 95 -11 98 -16 838 -19 4490 -19 3562 0
4432 4 4460 19 3 2 39 7 80 10 394 35 792 246 1049 556 163 196 302 489 336
710 4 25 9 53 11 64 2 10 6 44 9 75 4 31 8 67 10 81 17 101 20 812 20 4475 0
3671 -3 4358 -20 4480 -2 17 -6 55 -10 85 -13 112 -17 137 -37 220 -91 376
-337 724 -662 935 -244 158 -490 237 -811 260 -49 4 -101 10 -115 13 -26 6
-8434 15 -8441 8z"/>
</g>
</svg>
